<svg width="8" height="14" viewBox="0 0 8 14" fill="none" xmlns="http://www.w3.org/2000/svg">
<path d="M0.877054 9.12055L5.46705 13.7106C5.65441 13.8968 5.90787 14.0013 6.17205 14.0013C6.43624 14.0013 6.68969 13.8968 6.87705 13.7106C6.97078 13.6176 7.04518 13.507 7.09594 13.3851C7.14671 13.2633 7.17285 13.1326 7.17285 13.0006C7.17285 12.8685 7.14671 12.7378 7.09594 12.616C7.04518 12.4941 6.97078 12.3835 6.87705 12.2906L2.27705 7.71055C2.18333 7.61759 2.10893 7.50699 2.05816 7.38513C2.00739 7.26327 1.98126 7.13256 1.98126 7.00055C1.98126 6.86854 2.00739 6.73783 2.05816 6.61597C2.10893 6.49411 2.18333 6.38351 2.27705 6.29055L6.87705 1.71055C7.06536 1.52357 7.17167 1.26945 7.17261 1.00409C7.17355 0.738723 7.06903 0.483854 6.88205 0.29555C6.69508 0.107247 6.44095 0.000930942 6.17559 -6.7629e-06C5.91023 -0.000944468 5.65536 0.103573 5.46705 0.290551L0.877054 4.88055C0.315252 5.44305 -0.000307355 6.20555 -0.000307425 7.00055C-0.000307494 7.79555 0.315252 8.55805 0.877054 9.12055Z" fill="white"/>
</svg>
