<svg width="8" height="14" viewBox="0 0 8 14" fill="none" xmlns="http://www.w3.org/2000/svg">
<path d="M6.2958 9.12067L1.7058 13.7107C1.51844 13.8969 1.26498 14.0015 1.0008 14.0015C0.736612 14.0015 0.483161 13.8969 0.295798 13.7107C0.20207 13.6177 0.127676 13.5071 0.0769071 13.3852C0.0261384 13.2634 -7.59512e-08 13.1327 -8.74921e-08 13.0007C-9.90329e-08 12.8687 0.0261384 12.738 0.076907 12.6161C0.127676 12.4942 0.20207 12.3836 0.295798 12.2907L4.8958 7.71067C4.98953 7.61771 5.06392 7.50711 5.11469 7.38525C5.16546 7.26339 5.1916 7.13268 5.1916 7.00067C5.1916 6.86866 5.16546 6.73795 5.11469 6.6161C5.06392 6.49424 4.98953 6.38364 4.8958 6.29067L0.295797 1.71067C0.107494 1.52369 0.0011788 1.26957 0.000241097 1.00421C-0.000696608 0.738845 0.10382 0.483976 0.290798 0.295672C0.477776 0.107368 0.731898 0.00105279 0.997262 0.000115307C1.26263 -0.000822178 1.51749 0.103696 1.7058 0.290673L6.2958 4.88067C6.8576 5.44317 7.17316 6.20567 7.17316 7.00067C7.17316 7.79567 6.8576 8.55817 6.2958 9.12067Z" fill="white"/>
</svg>
