<svg width="11" height="5" viewBox="0 0 11 5" fill="none" xmlns="http://www.w3.org/2000/svg">
<path d="M6.87407 4.30609L9.93407 1.24609C10.0582 1.12118 10.1279 0.952209 10.1279 0.776086C10.1279 0.599962 10.0582 0.430994 9.93407 0.306086C9.87209 0.2436 9.79836 0.194004 9.71712 0.160158C9.63588 0.126312 9.54874 0.108887 9.46073 0.108887C9.37273 0.108887 9.28559 0.126312 9.20435 0.160158C9.12311 0.194004 9.04938 0.2436 8.9874 0.306086L5.93407 3.37275C5.87209 3.43524 5.79836 3.48483 5.71712 3.51868C5.63588 3.55253 5.54874 3.56995 5.46073 3.56995C5.37273 3.56995 5.28559 3.55253 5.20435 3.51868C5.12311 3.48483 5.04938 3.43524 4.9874 3.37275L1.93407 0.306085C1.80942 0.180549 1.64 0.109673 1.46309 0.109048C1.28618 0.108423 1.11627 0.178101 0.990735 0.302752C0.865199 0.427404 0.794322 0.596819 0.793697 0.773728C0.793072 0.950638 0.862751 1.12055 0.987403 1.24609L4.0474 4.30609C4.4224 4.68062 4.93073 4.89099 5.46073 4.89099C5.99074 4.89099 6.49907 4.68062 6.87407 4.30609Z" fill="#004EFF"/>
</svg>
