<svg width="22" height="20" viewBox="0 0 22 20" fill="none" xmlns="http://www.w3.org/2000/svg">
<path d="M21.9578 4L14.2413 11.715C13.3809 12.573 12.2153 13.0549 11 13.0549C9.78474 13.0549 8.61908 12.573 7.75867 11.715L0.0421667 4C0.0293333 4.1448 0 4.27586 0 4.41975V15.4176C0.00145554 16.6325 0.484808 17.7972 1.34403 18.6562C2.20326 19.5153 3.3682 19.9985 4.58333 20H17.4167C18.6318 19.9985 19.7967 19.5153 20.656 18.6562C21.5152 17.7972 21.9985 16.6325 22 15.4176V4.41975C22 4.27586 21.9707 4.1448 21.9578 4Z" fill="#004EFF"/>
<path d="M12.8852 10.2239L21 2.13492C20.6069 1.48525 20.0525 0.94751 19.3902 0.57356C18.7279 0.19961 17.9801 0.00207264 17.2189 0H4.78109C4.01992 0.00207264 3.27212 0.19961 2.60983 0.57356C1.94754 0.94751 1.3931 1.48525 1 2.13492L9.11478 10.2239C9.61547 10.7209 10.2933 11 11 11C11.7067 11 12.3845 10.7209 12.8852 10.2239Z" fill="#004EFF"/>
</svg>
