<svg width="20" height="18" viewBox="0 0 20 18" fill="none" xmlns="http://www.w3.org/2000/svg">
<path d="M19.389 6.87764C18.637 5.66781 17.6884 4.58713 16.5809 3.6785L18.9134 1.38696C19.0651 1.23261 19.1491 1.02588 19.1472 0.811294C19.1453 0.59671 19.0577 0.391444 18.9032 0.239705C18.7488 0.0879664 18.5398 0.00189561 18.3214 3.09378e-05C18.103 -0.00183373 17.8926 0.0806569 17.7355 0.229736L15.1989 2.72505C13.6265 1.80747 11.8288 1.32923 10 1.34195C4.84274 1.34195 1.90383 4.81035 0.610978 6.87764C0.211566 7.51232 0 8.24376 0 8.98994C0 9.73613 0.211566 10.4676 0.610978 11.1022C1.363 12.3121 2.31159 13.3928 3.4191 14.3014L1.08664 16.5929C1.00707 16.6684 0.943612 16.7587 0.899954 16.8586C0.856296 16.9584 0.833316 17.0658 0.832354 17.1745C0.831393 17.2832 0.85247 17.3909 0.894355 17.4915C0.936241 17.5921 0.998095 17.6835 1.07631 17.7603C1.15453 17.8371 1.24753 17.8979 1.34991 17.9391C1.45229 17.9802 1.56198 18.0009 1.67259 18C1.78319 17.999 1.8925 17.9764 1.99414 17.9336C2.09577 17.8907 2.18769 17.8283 2.26453 17.7502L4.80692 15.2524C6.3774 16.1698 8.1729 16.6489 10 16.6379C15.1573 16.6379 18.0962 13.1695 19.389 11.1022C19.7884 10.4676 20 9.73613 20 8.98994C20 8.24376 19.7884 7.51232 19.389 6.87764ZM2.03045 10.2454C1.79315 9.86813 1.66746 9.43342 1.66746 8.98994C1.66746 8.54647 1.79315 8.11176 2.03045 7.73451C3.14171 5.96184 5.65328 2.97876 10 2.97876C11.383 2.97115 12.7467 3.29862 13.9702 3.9322L12.2933 5.57965C11.4936 5.058 10.5347 4.82426 9.57952 4.91809C8.62431 5.01192 7.73156 5.42754 7.05276 6.09443C6.37396 6.76132 5.95091 7.6384 5.85541 8.57684C5.7599 9.51528 5.99782 10.4573 6.52879 11.243L4.6045 13.1335C3.58413 12.3231 2.7134 11.3461 2.03045 10.2454ZM12.4991 8.98994C12.4991 9.64111 12.2358 10.2656 11.7671 10.726C11.2984 11.1865 10.6628 11.4452 10 11.4452C9.6289 11.4437 9.26294 11.3598 8.92956 11.1996L12.2492 7.93829C12.4122 8.26582 12.4976 8.62535 12.4991 8.98994ZM7.50093 8.98994C7.50093 8.33878 7.76422 7.71429 8.23289 7.25384C8.70155 6.7934 9.3372 6.53473 10 6.53473C10.3711 6.53614 10.7371 6.62008 11.0704 6.78025L7.75083 10.0416C7.5878 9.71407 7.50236 9.35453 7.50093 8.98994ZM17.9695 10.2454C16.8583 12.018 14.3467 15.0011 10 15.0011C8.61695 15.0087 7.25332 14.6813 6.0298 14.0477L7.70668 12.4002C8.50644 12.9219 9.46528 13.1556 10.4205 13.0618C11.3757 12.968 12.2684 12.5523 12.9472 11.8855C13.626 11.2186 14.0491 10.3415 14.1446 9.40305C14.2401 8.4646 14.0022 7.5226 13.4712 6.73687L15.3955 4.84636C16.4159 5.65681 17.2866 6.63379 17.9695 7.73451C18.2068 8.11176 18.3325 8.54647 18.3325 8.98994C18.3325 9.43342 18.2068 9.86813 17.9695 10.2454Z" fill="#2C2C2C"/>
</svg>
