<svg width="20" height="16" viewBox="0 0 20 16" fill="none" xmlns="http://www.w3.org/2000/svg">
<path d="M19.389 5.79048C18.097 3.62804 15.1581 0 10 0C4.84191 0 1.903 3.62804 0.610978 5.79048C0.211566 6.45437 0 7.21947 0 8C0 8.78053 0.211566 9.54564 0.610978 10.2095C1.903 12.372 4.84191 16 10 16C15.1581 16 18.097 12.372 19.389 10.2095C19.7884 9.54564 20 8.78053 20 8C20 7.21947 19.7884 6.45437 19.389 5.79048ZM17.9687 9.31322C16.8591 11.1675 14.3476 14.2879 10 14.2879C5.65244 14.2879 3.14087 11.1675 2.03129 9.31322C1.79399 8.91861 1.6683 8.46388 1.6683 8C1.6683 7.53612 1.79399 7.0814 2.03129 6.68678C3.14087 4.83253 5.65244 1.71215 10 1.71215C14.3476 1.71215 16.8591 4.82911 17.9687 6.68678C18.206 7.0814 18.3317 7.53612 18.3317 8C18.3317 8.46388 18.206 8.91861 17.9687 9.31322Z" fill="#2C2C2C"/>
<path d="M10 4C9.20888 4 8.43552 4.2346 7.77772 4.67412C7.11992 5.11365 6.60723 5.73836 6.30448 6.46927C6.00173 7.20017 5.92252 8.00444 6.07686 8.78036C6.2312 9.55628 6.61216 10.269 7.17157 10.8284C7.73098 11.3878 8.44372 11.7688 9.21964 11.9231C9.99556 12.0775 10.7998 11.9983 11.5307 11.6955C12.2616 11.3928 12.8864 10.8801 13.3259 10.2223C13.7654 9.56448 14 8.79112 14 8C13.9987 6.93952 13.5769 5.92285 12.827 5.17298C12.0772 4.42311 11.0605 4.00127 10 4ZM10 10.4C9.52533 10.4 9.06131 10.2592 8.66663 9.99553C8.27195 9.73181 7.96434 9.35698 7.78269 8.91844C7.60104 8.4799 7.55351 7.99734 7.64612 7.53178C7.73872 7.06623 7.9673 6.63859 8.30294 6.30294C8.63859 5.9673 9.06623 5.73872 9.53178 5.64611C9.99734 5.55351 10.4799 5.60104 10.9184 5.78269C11.357 5.96434 11.7318 6.27195 11.9955 6.66663C12.2592 7.06131 12.4 7.52532 12.4 8C12.4 8.63652 12.1471 9.24697 11.6971 9.69705C11.247 10.1471 10.6365 10.4 10 10.4Z" fill="#2C2C2C"/>
</svg>
